<?xml version="1.0" encoding="UTF-8" standalone="no"?>
<svg
   xmlns:dc="http://purl.org/dc/elements/1.1/"
   xmlns:cc="http://creativecommons.org/ns#"
   xmlns:rdf="http://www.w3.org/1999/02/22-rdf-syntax-ns#"
   xmlns:svg="http://www.w3.org/2000/svg"
   xmlns="http://www.w3.org/2000/svg"
   xmlns:sodipodi="http://sodipodi.sourceforge.net/DTD/sodipodi-0.dtd"
   xmlns:inkscape="http://www.inkscape.org/namespaces/inkscape"
   version="1.1"
   id="Layer_1"
   x="0px"
   y="0px"
   width="80px"
   height="80px"
   viewBox="0 0 200 200"
   enable-background="new 0 0 200 200"
   xml:space="preserve"
   sodipodi:docname="loader.svg"
   inkscape:version="1.0.2 (e86c8708, 2021-01-15)"><metadata
   id="metadata120"><rdf:RDF><cc:Work
       rdf:about=""><dc:format>image/svg+xml</dc:format><dc:type
         rdf:resource="http://purl.org/dc/dcmitype/StillImage" /><dc:title></dc:title></cc:Work></rdf:RDF></metadata><defs
   id="defs118" /><sodipodi:namedview
   pagecolor="#ffffff"
   bordercolor="#666666"
   borderopacity="1"
   objecttolerance="10"
   gridtolerance="10"
   guidetolerance="10"
   inkscape:pageopacity="0"
   inkscape:pageshadow="2"
   inkscape:window-width="1397"
   inkscape:window-height="847"
   id="namedview116"
   showgrid="false"
   inkscape:pagecheckerboard="true"
   inkscape:zoom="7.9875"
   inkscape:cx="40"
   inkscape:cy="29.984351"
   inkscape:window-x="0"
   inkscape:window-y="25"
   inkscape:window-maximized="0"
   inkscape:current-layer="Layer_1" />
<g
   id="g107">
	<path
   fill="#fff"
   d="M77.714,56.253c-24.342,0-44.147,19.624-44.147,43.748s19.805,43.748,44.147,43.748   c24.343,0,44.147-19.624,44.147-43.748S102.057,56.253,77.714,56.253z"
   id="path93" />
	<path
   class="line-anim1"
   fill="#fff"
   d="M166.858,131.342h-8.913c-2.228,0-4.032,1.786-4.032,3.995c0,2.206,1.804,3.994,4.032,3.994h8.913   c2.229,0,4.032-1.788,4.032-3.994C170.89,133.128,169.086,131.342,166.858,131.342z"
   id="path95" />
	<path
   fill="#fff"
   d="M147.915,113.672h-14.359c1.093-4.382,1.676-8.959,1.676-13.67c0-7.991-1.67-15.6-4.677-22.507h13.072   c2.227,0,4.03-1.79,4.03-3.997c0-2.206-1.804-3.995-4.03-3.995h-17.341c-4.853-7.56-11.453-13.92-19.235-18.514h6.32   c2.227,0,4.032-1.786,4.032-3.994c0-2.204-1.805-3.994-4.032-3.994H77.714c-31.716,0-57.519,25.569-57.519,57   c0,31.43,25.803,56.997,57.519,56.997h62.401c2.227,0,4.032-1.786,4.032-3.995c0-2.208-1.805-3.994-4.032-3.994h-33.064   c4.52-2.666,8.644-5.926,12.256-9.678h20.234c2.228,0,4.032-1.788,4.032-3.994c0-2.209-1.804-3.995-4.032-3.995h-13.809   c2.025-3.036,3.763-6.274,5.181-9.678h17.002c2.229,0,4.032-1.788,4.032-3.997C151.947,115.461,150.144,113.672,147.915,113.672z    M77.714,149.009c-27.271,0-49.455-21.985-49.455-49.008c0-27.024,22.184-49.013,49.455-49.013   c27.269,0,49.455,21.989,49.455,49.013C127.169,127.026,104.983,149.009,77.714,149.009z"
   id="path97" />
	<path
   class="line-anim2"
   fill="#fff"
   d="M131.201,50.989h8.915c2.227,0,4.032-1.786,4.032-3.994c0-2.204-1.805-3.994-4.032-3.994h-8.915   c-2.227,0-4.032,1.79-4.032,3.994C127.169,49.203,128.974,50.989,131.201,50.989z"
   id="path99" />
	<path
   class="line-anim3"
   fill="#fff"
   d="M158.89,77.495h8.915c2.227,0,4.032-1.79,4.032-3.997c0-2.206-1.805-3.995-4.032-3.995h-8.915   c-2.227,0-4.032,1.789-4.032,3.995C154.858,75.705,156.663,77.495,158.89,77.495z"
   id="path101" />
	<path
   class="line-anim4"
   fill="#fff"
   d="M144.997,100.001c0,2.206,1.805,3.996,4.032,3.996h17.829c2.229,0,4.032-1.79,4.032-3.996   s-1.804-3.997-4.032-3.997h-17.829C146.802,96.005,144.997,97.795,144.997,100.001z"
   id="path103" />
	<path
   class="line-anim5"
   fill="#fff"
   d="M175.773,113.672h-8.915c-2.227,0-4.032,1.79-4.032,3.995c0,2.209,1.805,3.997,4.032,3.997h8.915   c2.227,0,4.032-1.788,4.032-3.997C179.805,115.461,178,113.672,175.773,113.672z"
   id="path105" />
</g>

<style
   id="style113">
	.line-anim1{ animation: moveline 1.5s infinite;opacity: 0; }
	.line-anim2{ animation: moveline 1.5s infinite;opacity: 0; }
	.line-anim3{ animation: moveline 1.5s infinite;opacity: 0; }
	.line-anim4{ animation: moveline 1.5s infinite;opacity: 0; }
	.line-anim5{ animation: moveline 1.5s infinite;opacity: 0; }
	@keyframes moveline {
	  0% {
	    transform: translateX(0px);
	    opacity: 0;
	  }
	  25% {
	    opacity: 1;
	  }
	  50%{
	  	transform: translateX(70px);
	    opacity: 0;
	  }
	  75%{
	  	opacity: 0;	
	  }
	  100% {
	    transform: translateX(0px);
	    opacity: 0;
	  }
	}
	.rotate-anim{ animation: rotateitem 1.5s infinite; }
	@keyframes rotateitem {
	  0% {
	   opacity:0;
	  }
	  50%{
	  	opacity:1;	
	  }
	  100% {
	    opacity:0;
	  }
	}
</style>

<text
   xml:space="preserve"
   style="font-style:normal;font-weight:normal;font-size:77.4528px;line-height:1.25;font-family:sans-serif;fill:#470fac;fill-opacity:1;stroke:none;stroke-width:1.93633"
   x="49.248215"
   y="129.27226"
   id="text124"
   transform="scale(1.014803,0.98541294)"><tspan
     sodipodi:role="line"
     id="tspan122"
     x="49.248215"
     y="129.27226"
     style="fill:#470fac;fill-opacity:1;stroke-width:1.93633">D</tspan></text></svg>
